<?xml version="1.0" encoding="utf-8"?>
<svg version="1.1" id="Layer_1" x="0px" y="0px" width="100%" viewBox="0 0 400 400" enable-background="new 0 0 416 340" xmlns="http://www.w3.org/2000/svg">
  <path opacity="1.000000" stroke="none" d="M 102.305 324.882 C 74.913 324.882 48.011 324.882 20 324.882 C 55.617 244.157 90.829 164.348 126.557 83.373 C 149.902 136.289 172.767 188.116 196.319 241.502 C 221.026 185.481 245.162 130.75 269.748 75 C 306.635 158.604 343.165 241.396 380 324.882 C 377.604 324.882 376.02 324.882 374.436 324.882 C 329.004 324.882 283.572 324.815 238.14 325 C 234.142 325.016 232.456 323.619 230.968 320.197 C 220.252 295.549 209.362 270.976 198.509 246.387 C 198.002 245.237 197.317 244.165 196.177 242.065 C 191.892 251.616 187.942 260.321 184.072 269.064 C 176.384 286.447 168.666 303.819 161.145 321.275 C 159.891 324.187 158.259 324.973 155.254 324.95 C 137.77 324.811 120.282 324.882 102.305 324.882 Z" style="fill: rgb(144, 202, 249);"/>
</svg>