<svg width="20" height="20" viewBox="0 0 20 20" fill="none" xmlns="http://www.w3.org/2000/svg">
<g clip-path="url(#clip0_15_1782)">
<path d="M11.4733 0.955542C11.2799 0.762029 11.0502 0.608522 10.7974 0.503791C10.5446 0.399059 10.2736 0.345154 10 0.345154C9.72637 0.345154 9.45541 0.399059 9.20262 0.503791C8.94982 0.608522 8.72013 0.762029 8.52667 0.955542L0 9.48304V17.4997C0 18.1628 0.263392 18.7986 0.732233 19.2675C1.20107 19.7363 1.83696 19.9997 2.5 19.9997H17.5C18.163 19.9997 18.7989 19.7363 19.2678 19.2675C19.7366 18.7986 20 18.1628 20 17.4997V9.48304L11.4733 0.955542ZM17.5 17.4997H13.3333V14.848C13.3333 14.0042 12.9981 13.1949 12.4014 12.5983C11.8048 12.0016 10.9955 11.6664 10.1517 11.6664H9.84833C9.0045 11.6664 8.19523 12.0016 7.59856 12.5983C7.00188 13.1949 6.66667 14.0042 6.66667 14.848V17.4997H2.5V10.518L10 3.01804L17.5 10.518V17.4997Z" fill="white"/>
</g>
<defs>
<clipPath id="clip0_15_1782">
<rect width="20" height="20" fill="white"/>
</clipPath>
</defs>
</svg>
