<svg width="20" height="20" viewBox="0 0 20 20" fill="none" xmlns="http://www.w3.org/2000/svg">
<path d="M5.70999 19.5311C5.07399 19.5283 4.45523 19.3241 3.94249 18.9478C3.4185 18.5792 3.0275 18.0513 2.82766 17.4426C2.62781 16.8339 2.6298 16.1769 2.83332 15.5695L3.80832 12.5536L1.24166 10.677C0.727027 10.301 0.344507 9.77184 0.148826 9.16527C-0.0468541 8.55869 -0.0456676 7.90577 0.152216 7.29991C0.3501 6.69405 0.734541 6.16631 1.25054 5.79218C1.76653 5.41806 2.38764 5.21672 3.02499 5.21698H6.16666L7.12082 2.24198C7.31665 1.63276 7.70078 1.10141 8.21789 0.72446C8.735 0.34751 9.35841 0.144409 9.99832 0.144409C10.6382 0.144409 11.2616 0.34751 11.7788 0.72446C12.2959 1.10141 12.68 1.63276 12.8758 2.24198V2.24198L13.8333 5.21698H16.975C17.6123 5.21689 18.2333 5.41836 18.7491 5.79255C19.265 6.16674 19.6493 6.69449 19.8471 7.30031C20.0448 7.90612 20.046 8.55897 19.8503 9.16546C19.6546 9.77196 19.2721 10.301 18.7575 10.677L16.1917 12.5536L17.1667 15.5695C17.3632 16.1778 17.3618 16.8328 17.1625 17.4403C16.9633 18.0478 16.5765 18.5764 16.0578 18.9501C15.5391 19.3239 14.9153 19.5235 14.2759 19.5202C13.6366 19.5169 13.0148 19.311 12.5 18.932L9.99999 17.0936L7.49999 18.9328C6.98271 19.3186 6.35531 19.5283 5.70999 19.5311V19.5311ZM3.02499 7.71698C2.915 7.71697 2.80781 7.75172 2.71875 7.81628C2.6297 7.88084 2.56333 7.9719 2.52913 8.07644C2.49493 8.18099 2.49465 8.29367 2.52833 8.39838C2.56201 8.50309 2.62792 8.59448 2.71666 8.65948L6.01332 11.0686C6.2256 11.2239 6.38352 11.4421 6.46461 11.6922C6.54571 11.9424 6.54584 12.2117 6.46499 12.462L5.21499 16.337C5.1803 16.4421 5.17995 16.5555 5.21398 16.6608C5.248 16.7662 5.31465 16.8579 5.40428 16.9229C5.49391 16.9878 5.60187 17.0226 5.71255 17.0221C5.82324 17.0217 5.93091 16.986 6.01999 16.9203L9.26082 14.5361C9.47552 14.3782 9.7351 14.293 10.0017 14.293C10.2682 14.293 10.5278 14.3782 10.7425 14.5361L13.9833 16.9195C14.0723 16.9858 14.1801 17.0219 14.2911 17.0227C14.402 17.0234 14.5103 16.9887 14.6002 16.9236C14.69 16.8585 14.7567 16.7664 14.7906 16.6607C14.8244 16.5551 14.8236 16.4413 14.7883 16.3361L13.5383 12.4611C13.4575 12.2109 13.4576 11.9415 13.5387 11.6914C13.6198 11.4412 13.7777 11.223 13.99 11.0678L17.2858 8.65864C17.3745 8.59368 17.4404 8.50237 17.4741 8.39774C17.5078 8.29311 17.5076 8.18051 17.4735 8.07601C17.4394 7.9715 17.3732 7.88044 17.2842 7.81582C17.1953 7.75119 17.0882 7.71631 16.9783 7.71614H12.9167C12.6519 7.71608 12.394 7.63196 12.1802 7.4759C11.9663 7.31985 11.8075 7.09992 11.7267 6.84781L10.5 3.00531C10.4662 2.90014 10.3999 2.80841 10.3107 2.74334C10.2214 2.67826 10.1138 2.6432 10.0033 2.6432C9.89286 2.6432 9.78525 2.67826 9.696 2.74334C9.60674 2.80841 9.54044 2.90014 9.50666 3.00531L8.27082 6.84864C8.19012 7.10034 8.0317 7.31998 7.81834 7.476C7.60497 7.63202 7.34765 7.71638 7.08332 7.71698H3.02499Z" fill="white"/>
</svg>
